<mxfile host="app.diagrams.net" modified="2022-04-01T21:47:48.560Z" agent="5.0 (X11)" etag="0GdvsQO8CvbJGF6Vx9qG" version="17.4.0" type="github">
  <diagram id="wZkRxiQvbxDe6zL3l4wC" name="Page-1">
    <mxGraphModel dx="782" dy="640" grid="1" gridSize="10" guides="1" tooltips="1" connect="1" arrows="1" fold="1" page="1" pageScale="1" pageWidth="850" pageHeight="1100" math="0" shadow="0">
      <root>
        <mxCell id="0" />
        <mxCell id="1" parent="0" />
        <mxCell id="nYX589AOi4GFV08U0YiZ-1" value="&lt;font style=&quot;font-size: 20px&quot;&gt;DVDs&lt;/font&gt;" style="rounded=0;whiteSpace=wrap;html=1;" parent="1" vertex="1">
          <mxGeometry x="60" y="290" width="210" height="160" as="geometry" />
        </mxCell>
        <mxCell id="nYX589AOi4GFV08U0YiZ-2" value="&lt;font style=&quot;font-size: 20px&quot;&gt;Filmes&lt;/font&gt;" style="rounded=0;whiteSpace=wrap;html=1;" parent="1" vertex="1">
          <mxGeometry x="580" y="290" width="210" height="160" as="geometry" />
        </mxCell>
        <mxCell id="nYX589AOi4GFV08U0YiZ-3" value="&lt;font style=&quot;font-size: 20px&quot;&gt;Clientes&lt;/font&gt;" style="rounded=0;whiteSpace=wrap;html=1;" parent="1" vertex="1">
          <mxGeometry x="60" y="760" width="210" height="160" as="geometry" />
        </mxCell>
        <mxCell id="nYX589AOi4GFV08U0YiZ-4" value="&lt;font style=&quot;font-size: 20px&quot;&gt;Atores&lt;/font&gt;" style="rounded=0;whiteSpace=wrap;html=1;" parent="1" vertex="1">
          <mxGeometry x="580" y="780" width="210" height="160" as="geometry" />
        </mxCell>
        <mxCell id="nYX589AOi4GFV08U0YiZ-6" style="edgeStyle=orthogonalEdgeStyle;rounded=0;orthogonalLoop=1;jettySize=auto;html=1;exitX=1;exitY=0.5;exitDx=0;exitDy=0;entryX=0;entryY=0.5;entryDx=0;entryDy=0;fontSize=18;endArrow=none;endFill=0;" parent="1" source="nYX589AOi4GFV08U0YiZ-5" target="nYX589AOi4GFV08U0YiZ-2" edge="1">
          <mxGeometry relative="1" as="geometry" />
        </mxCell>
        <mxCell id="nYX589AOi4GFV08U0YiZ-7" style="edgeStyle=orthogonalEdgeStyle;rounded=0;orthogonalLoop=1;jettySize=auto;html=1;exitX=0;exitY=0.5;exitDx=0;exitDy=0;entryX=1;entryY=0.5;entryDx=0;entryDy=0;fontSize=18;endArrow=none;endFill=0;" parent="1" source="nYX589AOi4GFV08U0YiZ-5" target="nYX589AOi4GFV08U0YiZ-1" edge="1">
          <mxGeometry relative="1" as="geometry" />
        </mxCell>
        <mxCell id="nYX589AOi4GFV08U0YiZ-5" value="&lt;font style=&quot;font-size: 18px&quot;&gt;Possuem&lt;/font&gt;" style="rhombus;whiteSpace=wrap;html=1;fontSize=20;" parent="1" vertex="1">
          <mxGeometry x="378" y="325" width="95" height="90" as="geometry" />
        </mxCell>
        <mxCell id="nYX589AOi4GFV08U0YiZ-9" style="edgeStyle=orthogonalEdgeStyle;rounded=0;orthogonalLoop=1;jettySize=auto;html=1;exitX=0.5;exitY=0;exitDx=0;exitDy=0;entryX=0.5;entryY=1;entryDx=0;entryDy=0;fontSize=18;endArrow=none;endFill=0;" parent="1" source="nYX589AOi4GFV08U0YiZ-8" target="nYX589AOi4GFV08U0YiZ-2" edge="1">
          <mxGeometry relative="1" as="geometry" />
        </mxCell>
        <mxCell id="nYX589AOi4GFV08U0YiZ-10" style="edgeStyle=orthogonalEdgeStyle;rounded=0;orthogonalLoop=1;jettySize=auto;html=1;exitX=0.5;exitY=1;exitDx=0;exitDy=0;entryX=0.5;entryY=0;entryDx=0;entryDy=0;fontSize=18;endArrow=none;endFill=0;" parent="1" source="nYX589AOi4GFV08U0YiZ-8" target="nYX589AOi4GFV08U0YiZ-4" edge="1">
          <mxGeometry relative="1" as="geometry" />
        </mxCell>
        <mxCell id="nYX589AOi4GFV08U0YiZ-8" value="&lt;font style=&quot;font-size: 18px&quot;&gt;Têm&lt;/font&gt;" style="rhombus;whiteSpace=wrap;html=1;fontSize=20;" parent="1" vertex="1">
          <mxGeometry x="637.5" y="575" width="95" height="90" as="geometry" />
        </mxCell>
        <mxCell id="nYX589AOi4GFV08U0YiZ-12" style="edgeStyle=orthogonalEdgeStyle;rounded=0;orthogonalLoop=1;jettySize=auto;html=1;exitX=0.5;exitY=0;exitDx=0;exitDy=0;entryX=0.5;entryY=1;entryDx=0;entryDy=0;fontSize=18;endArrow=none;endFill=0;" parent="1" source="nYX589AOi4GFV08U0YiZ-11" target="nYX589AOi4GFV08U0YiZ-1" edge="1">
          <mxGeometry relative="1" as="geometry" />
        </mxCell>
        <mxCell id="nYX589AOi4GFV08U0YiZ-13" style="edgeStyle=orthogonalEdgeStyle;rounded=0;orthogonalLoop=1;jettySize=auto;html=1;exitX=0.5;exitY=1;exitDx=0;exitDy=0;entryX=0.5;entryY=0;entryDx=0;entryDy=0;fontSize=18;endArrow=none;endFill=0;" parent="1" source="nYX589AOi4GFV08U0YiZ-11" target="nYX589AOi4GFV08U0YiZ-3" edge="1">
          <mxGeometry relative="1" as="geometry" />
        </mxCell>
        <mxCell id="SIllvVgvZXxNxGIr9EO1-21" style="edgeStyle=orthogonalEdgeStyle;rounded=0;orthogonalLoop=1;jettySize=auto;html=1;exitX=1;exitY=0.5;exitDx=0;exitDy=0;entryX=0;entryY=0.5;entryDx=0;entryDy=0;fontSize=20;endArrow=none;endFill=0;" edge="1" parent="1" source="nYX589AOi4GFV08U0YiZ-11" target="SIllvVgvZXxNxGIr9EO1-18">
          <mxGeometry relative="1" as="geometry" />
        </mxCell>
        <mxCell id="SIllvVgvZXxNxGIr9EO1-22" style="edgeStyle=orthogonalEdgeStyle;rounded=0;orthogonalLoop=1;jettySize=auto;html=1;exitX=1;exitY=1;exitDx=0;exitDy=0;entryX=0;entryY=0.5;entryDx=0;entryDy=0;fontSize=20;endArrow=none;endFill=0;" edge="1" parent="1" source="nYX589AOi4GFV08U0YiZ-11" target="SIllvVgvZXxNxGIr9EO1-19">
          <mxGeometry relative="1" as="geometry" />
        </mxCell>
        <mxCell id="nYX589AOi4GFV08U0YiZ-11" value="&lt;font style=&quot;font-size: 18px&quot;&gt;Emprestam&lt;/font&gt;" style="rhombus;whiteSpace=wrap;html=1;fontSize=20;" parent="1" vertex="1">
          <mxGeometry x="108.75" y="590" width="112.5" height="100" as="geometry" />
        </mxCell>
        <mxCell id="nYX589AOi4GFV08U0YiZ-14" value="Nº" style="text;html=1;strokeColor=none;fillColor=none;align=center;verticalAlign=middle;whiteSpace=wrap;rounded=0;fontSize=18;labelBackgroundColor=#FFFFFF;" parent="1" vertex="1">
          <mxGeometry x="137.5" y="160" width="55" height="30" as="geometry" />
        </mxCell>
        <mxCell id="nYX589AOi4GFV08U0YiZ-18" value="ID" style="text;html=1;strokeColor=none;fillColor=none;align=center;verticalAlign=middle;whiteSpace=wrap;rounded=0;labelBackgroundColor=#FFFFFF;fontSize=18;" parent="1" vertex="1">
          <mxGeometry x="577.5" y="190" width="60" height="30" as="geometry" />
        </mxCell>
        <mxCell id="nYX589AOi4GFV08U0YiZ-19" value="Título" style="text;html=1;strokeColor=none;fillColor=none;align=center;verticalAlign=middle;whiteSpace=wrap;rounded=0;labelBackgroundColor=#FFFFFF;fontSize=18;" parent="1" vertex="1">
          <mxGeometry x="630" y="190" width="60" height="30" as="geometry" />
        </mxCell>
        <mxCell id="nYX589AOi4GFV08U0YiZ-24" value="&lt;span style=&quot;&quot;&gt;Nome&lt;/span&gt;" style="text;html=1;strokeColor=none;fillColor=none;align=center;verticalAlign=middle;whiteSpace=wrap;rounded=0;labelBackgroundColor=#FFFFFF;fontSize=18;" parent="1" vertex="1">
          <mxGeometry x="655" y="1040" width="60" height="30" as="geometry" />
        </mxCell>
        <mxCell id="nYX589AOi4GFV08U0YiZ-26" value="ID" style="text;html=1;strokeColor=none;fillColor=none;align=center;verticalAlign=middle;whiteSpace=wrap;rounded=0;labelBackgroundColor=#FFFFFF;fontSize=18;" parent="1" vertex="1">
          <mxGeometry x="27.5" y="1040" width="40" height="30" as="geometry" />
        </mxCell>
        <mxCell id="nYX589AOi4GFV08U0YiZ-29" value="Telefone" style="text;html=1;strokeColor=none;fillColor=none;align=center;verticalAlign=middle;whiteSpace=wrap;rounded=0;labelBackgroundColor=#FFFFFF;fontSize=18;" parent="1" vertex="1">
          <mxGeometry x="67.5" y="1040" width="70" height="30" as="geometry" />
        </mxCell>
        <mxCell id="nYX589AOi4GFV08U0YiZ-31" value="Endereço" style="text;html=1;strokeColor=none;fillColor=none;align=center;verticalAlign=middle;whiteSpace=wrap;rounded=0;labelBackgroundColor=#FFFFFF;fontSize=18;" parent="1" vertex="1">
          <mxGeometry x="151.25" y="1040" width="70" height="30" as="geometry" />
        </mxCell>
        <mxCell id="nYX589AOi4GFV08U0YiZ-33" value="Nome completo" style="text;html=1;strokeColor=none;fillColor=none;align=center;verticalAlign=middle;whiteSpace=wrap;rounded=0;labelBackgroundColor=#FFFFFF;fontSize=18;" parent="1" vertex="1">
          <mxGeometry x="230" y="1030" width="80" height="50" as="geometry" />
        </mxCell>
        <mxCell id="nYX589AOi4GFV08U0YiZ-39" value="Data de Empréstimo" style="text;html=1;strokeColor=none;fillColor=none;align=center;verticalAlign=middle;whiteSpace=wrap;rounded=0;labelBackgroundColor=#FFFFFF;fontSize=18;" parent="1" vertex="1">
          <mxGeometry x="314.75" y="545" width="110" height="50" as="geometry" />
        </mxCell>
        <mxCell id="nYX589AOi4GFV08U0YiZ-40" value="Data de Devolução" style="text;html=1;strokeColor=none;fillColor=none;align=center;verticalAlign=middle;whiteSpace=wrap;rounded=0;labelBackgroundColor=#FFFFFF;fontSize=18;" parent="1" vertex="1">
          <mxGeometry x="314.75" y="690" width="110" height="50" as="geometry" />
        </mxCell>
        <mxCell id="nYX589AOi4GFV08U0YiZ-41" value="Valor" style="text;html=1;strokeColor=none;fillColor=none;align=center;verticalAlign=middle;whiteSpace=wrap;rounded=0;labelBackgroundColor=#FFFFFF;fontSize=18;" parent="1" vertex="1">
          <mxGeometry x="334.75" y="622.5" width="70" height="35" as="geometry" />
        </mxCell>
        <mxCell id="nYX589AOi4GFV08U0YiZ-47" value="1...1" style="text;html=1;strokeColor=none;fillColor=none;align=center;verticalAlign=middle;whiteSpace=wrap;rounded=0;labelBackgroundColor=#FFFFFF;fontSize=18;" parent="1" vertex="1">
          <mxGeometry x="473" y="330" width="30" height="30" as="geometry" />
        </mxCell>
        <mxCell id="nYX589AOi4GFV08U0YiZ-48" value="1..N" style="text;html=1;strokeColor=none;fillColor=none;align=center;verticalAlign=middle;whiteSpace=wrap;rounded=0;labelBackgroundColor=#FFFFFF;fontSize=18;" parent="1" vertex="1">
          <mxGeometry x="340" y="330" width="30" height="30" as="geometry" />
        </mxCell>
        <mxCell id="nYX589AOi4GFV08U0YiZ-49" value="0...N" style="text;html=1;strokeColor=none;fillColor=none;align=center;verticalAlign=middle;whiteSpace=wrap;rounded=0;labelBackgroundColor=#FFFFFF;fontSize=18;" parent="1" vertex="1">
          <mxGeometry x="702.5" y="665" width="30" height="30" as="geometry" />
        </mxCell>
        <mxCell id="nYX589AOi4GFV08U0YiZ-50" value="1...N" style="text;html=1;strokeColor=none;fillColor=none;align=center;verticalAlign=middle;whiteSpace=wrap;rounded=0;labelBackgroundColor=#FFFFFF;fontSize=18;" parent="1" vertex="1">
          <mxGeometry x="702.5" y="535" width="30" height="30" as="geometry" />
        </mxCell>
        <mxCell id="nYX589AOi4GFV08U0YiZ-51" value="1...N" style="text;html=1;strokeColor=none;fillColor=none;align=center;verticalAlign=middle;whiteSpace=wrap;rounded=0;labelBackgroundColor=#FFFFFF;fontSize=18;" parent="1" vertex="1">
          <mxGeometry x="121.25" y="550" width="30" height="30" as="geometry" />
        </mxCell>
        <mxCell id="nYX589AOi4GFV08U0YiZ-52" value="1...1" style="text;html=1;strokeColor=none;fillColor=none;align=center;verticalAlign=middle;whiteSpace=wrap;rounded=0;labelBackgroundColor=#FFFFFF;fontSize=18;" parent="1" vertex="1">
          <mxGeometry x="121.25" y="700" width="30" height="30" as="geometry" />
        </mxCell>
        <mxCell id="SIllvVgvZXxNxGIr9EO1-1" value="&lt;font style=&quot;font-size: 20px&quot;&gt;Gênero&lt;/font&gt;" style="rounded=0;whiteSpace=wrap;html=1;" vertex="1" parent="1">
          <mxGeometry x="610" width="170" height="90" as="geometry" />
        </mxCell>
        <mxCell id="SIllvVgvZXxNxGIr9EO1-3" style="edgeStyle=orthogonalEdgeStyle;rounded=0;orthogonalLoop=1;jettySize=auto;html=1;exitX=0.5;exitY=0;exitDx=0;exitDy=0;entryX=0.709;entryY=1;entryDx=0;entryDy=0;entryPerimeter=0;fontSize=20;endArrow=none;endFill=0;" edge="1" parent="1" source="SIllvVgvZXxNxGIr9EO1-2" target="SIllvVgvZXxNxGIr9EO1-1">
          <mxGeometry relative="1" as="geometry" />
        </mxCell>
        <mxCell id="SIllvVgvZXxNxGIr9EO1-4" style="edgeStyle=orthogonalEdgeStyle;rounded=0;orthogonalLoop=1;jettySize=auto;html=1;entryX=0.714;entryY=0;entryDx=0;entryDy=0;entryPerimeter=0;fontSize=20;endArrow=none;endFill=0;" edge="1" parent="1" source="SIllvVgvZXxNxGIr9EO1-2" target="nYX589AOi4GFV08U0YiZ-2">
          <mxGeometry relative="1" as="geometry" />
        </mxCell>
        <mxCell id="SIllvVgvZXxNxGIr9EO1-2" value="Têm" style="rhombus;whiteSpace=wrap;html=1;fontSize=20;" vertex="1" parent="1">
          <mxGeometry x="690" y="150" width="80" height="80" as="geometry" />
        </mxCell>
        <mxCell id="SIllvVgvZXxNxGIr9EO1-6" style="edgeStyle=orthogonalEdgeStyle;rounded=0;orthogonalLoop=1;jettySize=auto;html=1;exitX=1;exitY=0.5;exitDx=0;exitDy=0;entryX=0;entryY=0.5;entryDx=0;entryDy=0;fontSize=20;endArrow=none;endFill=0;" edge="1" parent="1" source="SIllvVgvZXxNxGIr9EO1-5" target="SIllvVgvZXxNxGIr9EO1-1">
          <mxGeometry relative="1" as="geometry" />
        </mxCell>
        <mxCell id="SIllvVgvZXxNxGIr9EO1-5" value="" style="ellipse;whiteSpace=wrap;html=1;aspect=fixed;fontSize=20;fillColor=#000000;" vertex="1" parent="1">
          <mxGeometry x="550" y="25" width="40" height="40" as="geometry" />
        </mxCell>
        <mxCell id="SIllvVgvZXxNxGIr9EO1-7" value="Nome" style="text;html=1;strokeColor=none;fillColor=none;align=center;verticalAlign=middle;whiteSpace=wrap;rounded=0;fontSize=20;" vertex="1" parent="1">
          <mxGeometry x="480" y="30" width="60" height="30" as="geometry" />
        </mxCell>
        <mxCell id="SIllvVgvZXxNxGIr9EO1-10" style="edgeStyle=orthogonalEdgeStyle;rounded=0;orthogonalLoop=1;jettySize=auto;html=1;exitX=0.5;exitY=1;exitDx=0;exitDy=0;entryX=0.129;entryY=-0.011;entryDx=0;entryDy=0;entryPerimeter=0;fontSize=20;endArrow=none;endFill=0;" edge="1" parent="1" source="SIllvVgvZXxNxGIr9EO1-8" target="nYX589AOi4GFV08U0YiZ-2">
          <mxGeometry relative="1" as="geometry" />
        </mxCell>
        <mxCell id="SIllvVgvZXxNxGIr9EO1-8" value="" style="ellipse;whiteSpace=wrap;html=1;aspect=fixed;fontSize=20;fillColor=#000000;" vertex="1" parent="1">
          <mxGeometry x="587.5" y="220" width="40" height="40" as="geometry" />
        </mxCell>
        <mxCell id="SIllvVgvZXxNxGIr9EO1-11" style="edgeStyle=orthogonalEdgeStyle;rounded=0;orthogonalLoop=1;jettySize=auto;html=1;exitX=0.5;exitY=1;exitDx=0;exitDy=0;entryX=0.37;entryY=-0.011;entryDx=0;entryDy=0;entryPerimeter=0;fontSize=20;endArrow=none;endFill=0;" edge="1" parent="1" source="SIllvVgvZXxNxGIr9EO1-9" target="nYX589AOi4GFV08U0YiZ-2">
          <mxGeometry relative="1" as="geometry" />
        </mxCell>
        <mxCell id="SIllvVgvZXxNxGIr9EO1-9" value="" style="ellipse;whiteSpace=wrap;html=1;aspect=fixed;fontSize=20;" vertex="1" parent="1">
          <mxGeometry x="637.5" y="220" width="40" height="40" as="geometry" />
        </mxCell>
        <mxCell id="SIllvVgvZXxNxGIr9EO1-12" value="1..N" style="text;html=1;strokeColor=none;fillColor=none;align=center;verticalAlign=middle;whiteSpace=wrap;rounded=0;labelBackgroundColor=#FFFFFF;fontSize=18;" vertex="1" parent="1">
          <mxGeometry x="740" y="120" width="30" height="30" as="geometry" />
        </mxCell>
        <mxCell id="SIllvVgvZXxNxGIr9EO1-13" value="1..N" style="text;html=1;strokeColor=none;fillColor=none;align=center;verticalAlign=middle;whiteSpace=wrap;rounded=0;labelBackgroundColor=#FFFFFF;fontSize=18;" vertex="1" parent="1">
          <mxGeometry x="740" y="230" width="30" height="30" as="geometry" />
        </mxCell>
        <mxCell id="SIllvVgvZXxNxGIr9EO1-16" style="edgeStyle=orthogonalEdgeStyle;rounded=0;orthogonalLoop=1;jettySize=auto;html=1;exitX=0.5;exitY=1;exitDx=0;exitDy=0;entryX=0.5;entryY=0;entryDx=0;entryDy=0;fontSize=20;endArrow=none;endFill=0;" edge="1" parent="1" source="SIllvVgvZXxNxGIr9EO1-14" target="nYX589AOi4GFV08U0YiZ-1">
          <mxGeometry relative="1" as="geometry" />
        </mxCell>
        <mxCell id="SIllvVgvZXxNxGIr9EO1-14" value="" style="ellipse;whiteSpace=wrap;html=1;aspect=fixed;fontSize=20;fillColor=#000000;" vertex="1" parent="1">
          <mxGeometry x="145" y="200" width="40" height="40" as="geometry" />
        </mxCell>
        <mxCell id="SIllvVgvZXxNxGIr9EO1-20" style="edgeStyle=orthogonalEdgeStyle;rounded=0;orthogonalLoop=1;jettySize=auto;html=1;exitX=0;exitY=0.5;exitDx=0;exitDy=0;entryX=1;entryY=0;entryDx=0;entryDy=0;fontSize=20;endArrow=none;endFill=0;" edge="1" parent="1" source="SIllvVgvZXxNxGIr9EO1-17" target="nYX589AOi4GFV08U0YiZ-11">
          <mxGeometry relative="1" as="geometry" />
        </mxCell>
        <mxCell id="SIllvVgvZXxNxGIr9EO1-17" value="" style="ellipse;whiteSpace=wrap;html=1;aspect=fixed;fontSize=20;" vertex="1" parent="1">
          <mxGeometry x="270" y="555" width="40" height="40" as="geometry" />
        </mxCell>
        <mxCell id="SIllvVgvZXxNxGIr9EO1-18" value="" style="ellipse;whiteSpace=wrap;html=1;aspect=fixed;fontSize=20;" vertex="1" parent="1">
          <mxGeometry x="270" y="620" width="40" height="40" as="geometry" />
        </mxCell>
        <mxCell id="SIllvVgvZXxNxGIr9EO1-19" value="" style="ellipse;whiteSpace=wrap;html=1;aspect=fixed;fontSize=20;" vertex="1" parent="1">
          <mxGeometry x="270" y="695" width="40" height="40" as="geometry" />
        </mxCell>
        <mxCell id="SIllvVgvZXxNxGIr9EO1-24" style="edgeStyle=orthogonalEdgeStyle;rounded=0;orthogonalLoop=1;jettySize=auto;html=1;exitX=0.5;exitY=0;exitDx=0;exitDy=0;entryX=0.5;entryY=1;entryDx=0;entryDy=0;fontSize=20;endArrow=none;endFill=0;" edge="1" parent="1" source="SIllvVgvZXxNxGIr9EO1-23" target="nYX589AOi4GFV08U0YiZ-4">
          <mxGeometry relative="1" as="geometry" />
        </mxCell>
        <mxCell id="SIllvVgvZXxNxGIr9EO1-23" value="" style="ellipse;whiteSpace=wrap;html=1;aspect=fixed;fontSize=20;fillColor=#000000;" vertex="1" parent="1">
          <mxGeometry x="665" y="990" width="40" height="40" as="geometry" />
        </mxCell>
        <mxCell id="SIllvVgvZXxNxGIr9EO1-29" style="edgeStyle=orthogonalEdgeStyle;rounded=0;orthogonalLoop=1;jettySize=auto;html=1;exitX=0.5;exitY=0;exitDx=0;exitDy=0;entryX=0.045;entryY=1.007;entryDx=0;entryDy=0;entryPerimeter=0;fontSize=20;endArrow=none;endFill=0;" edge="1" parent="1" source="SIllvVgvZXxNxGIr9EO1-25" target="nYX589AOi4GFV08U0YiZ-3">
          <mxGeometry relative="1" as="geometry" />
        </mxCell>
        <mxCell id="SIllvVgvZXxNxGIr9EO1-25" value="" style="ellipse;whiteSpace=wrap;html=1;aspect=fixed;fontSize=20;fillColor=#000000;" vertex="1" parent="1">
          <mxGeometry x="27.5" y="990" width="40" height="40" as="geometry" />
        </mxCell>
        <mxCell id="SIllvVgvZXxNxGIr9EO1-30" style="edgeStyle=orthogonalEdgeStyle;rounded=0;orthogonalLoop=1;jettySize=auto;html=1;exitX=0.5;exitY=0;exitDx=0;exitDy=0;entryX=0.202;entryY=1;entryDx=0;entryDy=0;entryPerimeter=0;fontSize=20;endArrow=none;endFill=0;" edge="1" parent="1" source="SIllvVgvZXxNxGIr9EO1-26" target="nYX589AOi4GFV08U0YiZ-3">
          <mxGeometry relative="1" as="geometry" />
        </mxCell>
        <mxCell id="SIllvVgvZXxNxGIr9EO1-26" value="" style="ellipse;whiteSpace=wrap;html=1;aspect=fixed;fontSize=20;" vertex="1" parent="1">
          <mxGeometry x="82.5" y="990" width="40" height="40" as="geometry" />
        </mxCell>
        <mxCell id="SIllvVgvZXxNxGIr9EO1-33" style="edgeStyle=orthogonalEdgeStyle;rounded=0;orthogonalLoop=1;jettySize=auto;html=1;exitX=0.5;exitY=0;exitDx=0;exitDy=0;entryX=0.599;entryY=1.014;entryDx=0;entryDy=0;entryPerimeter=0;fontSize=20;endArrow=none;endFill=0;" edge="1" parent="1" source="SIllvVgvZXxNxGIr9EO1-27" target="nYX589AOi4GFV08U0YiZ-3">
          <mxGeometry relative="1" as="geometry" />
        </mxCell>
        <mxCell id="SIllvVgvZXxNxGIr9EO1-27" value="" style="ellipse;whiteSpace=wrap;html=1;aspect=fixed;fontSize=20;" vertex="1" parent="1">
          <mxGeometry x="166.25" y="990" width="40" height="40" as="geometry" />
        </mxCell>
        <mxCell id="SIllvVgvZXxNxGIr9EO1-32" style="edgeStyle=orthogonalEdgeStyle;rounded=0;orthogonalLoop=1;jettySize=auto;html=1;exitX=0.5;exitY=0;exitDx=0;exitDy=0;entryX=0.75;entryY=1;entryDx=0;entryDy=0;fontSize=20;endArrow=none;endFill=0;" edge="1" parent="1" source="SIllvVgvZXxNxGIr9EO1-28" target="nYX589AOi4GFV08U0YiZ-3">
          <mxGeometry relative="1" as="geometry" />
        </mxCell>
        <mxCell id="SIllvVgvZXxNxGIr9EO1-28" value="" style="ellipse;whiteSpace=wrap;html=1;aspect=fixed;fontSize=20;" vertex="1" parent="1">
          <mxGeometry x="250" y="990" width="40" height="40" as="geometry" />
        </mxCell>
      </root>
    </mxGraphModel>
  </diagram>
</mxfile>
